REM DIRINDEX 1\2\6,1\2\7,1\2\8,1\2\9,1\3\10,1\3\11,1\4\12,1\4\13,1\4\14,1\5\15,1\5\16,1\5\17
REM DIRNAME cjc020,folder01,folder02,folder03,folder04,folder05,folder06,folder07,folder08,folder09,folder10,folder11,folder12,folder13,folder14,folder15,folder16
TITLE ""
FILE "1900_2_sec12_1167_1183.mp3" MP3
  TRACK 01 AUDIO
    TITLE "0:"
    INDEX 01 00:00:00
  TRACK 02 AUDIO
    TITLE "13:cjc020_4467"
    INDEX 01 00:00:17
  TRACK 03 AUDIO
    TITLE "0:"
    INDEX 01 00:01:46
  TRACK 04 AUDIO
    TITLE "14:cjc020_4468"
    INDEX 01 00:01:50
  TRACK 05 AUDIO
    TITLE "0:"
    INDEX 01 00:03:27
  TRACK 06 AUDIO
    TITLE "13:cjc020_4469"
    INDEX 01 00:04:07
  TRACK 07 AUDIO
    TITLE "0:"
    INDEX 01 00:05:05
  TRACK 08 AUDIO
    TITLE "14:cjc020_4470"
    INDEX 01 00:05:12
  TRACK 09 AUDIO
    TITLE "0:"
    INDEX 01 00:10:43
  TRACK 10 AUDIO
    TITLE "13:cjc020_4471"
    INDEX 01 00:11:25
  TRACK 11 AUDIO
    TITLE "0:"
    INDEX 01 00:12:38
  TRACK 12 AUDIO
    TITLE "14:cjc020_4472"
    INDEX 01 00:12:42
  TRACK 13 AUDIO
    TITLE "0:"
    INDEX 01 00:15:62
  TRACK 14 AUDIO
    TITLE "13:cjc020_4473"
    INDEX 01 00:16:38
  TRACK 15 AUDIO
    TITLE "0:"
    INDEX 01 00:18:17
  TRACK 16 AUDIO
    TITLE "14:cjc020_4474"
    INDEX 01 00:18:23
  TRACK 17 AUDIO
    TITLE "0:"
    INDEX 01 00:19:71
  TRACK 18 AUDIO
    TITLE "13:cjc020_4475"
    INDEX 01 00:20:51
  TRACK 19 AUDIO
    TITLE "0:"
    INDEX 01 00:21:68
  TRACK 20 AUDIO
    TITLE "14:cjc020_4476"
    INDEX 01 00:21:72
  TRACK 21 AUDIO
    TITLE "0:"
    INDEX 01 00:24:37
  TRACK 22 AUDIO
    TITLE "13:cjc020_4477"
    INDEX 01 00:25:19
  TRACK 23 AUDIO
    TITLE "0:"
    INDEX 01 00:26:34
  TRACK 24 AUDIO
    TITLE "14:cjc020_4478"
    INDEX 01 00:26:38
  TRACK 25 AUDIO
    TITLE "0:"
    INDEX 01 00:28:68
  TRACK 26 AUDIO
    TITLE "13:cjc020_4479"
    INDEX 01 00:29:44
  TRACK 27 AUDIO
    TITLE "0:"
    INDEX 01 00:30:73
  TRACK 28 AUDIO
    TITLE "14:cjc020_4480"
    INDEX 01 00:31:02
  TRACK 29 AUDIO
    TITLE "0:"
    INDEX 01 00:33:34
  TRACK 30 AUDIO
    TITLE "13:cjc020_4481"
    INDEX 01 00:34:16
  TRACK 31 AUDIO
    TITLE "0:"
    INDEX 01 00:35:35
  TRACK 32 AUDIO
    TITLE "14:cjc020_4482"
    INDEX 01 00:35:41
  TRACK 33 AUDIO
    TITLE "0:"
    INDEX 01 00:38:47
  TRACK 34 AUDIO
    TITLE "13:cjc020_4483"
    INDEX 01 00:39:27
  TRACK 35 AUDIO
    TITLE "0:"
    INDEX 01 00:40:32
  TRACK 36 AUDIO
    TITLE "14:cjc020_4484"
    INDEX 01 00:40:34
  TRACK 37 AUDIO
    TITLE "0:"
    INDEX 01 00:44:14
  TRACK 38 AUDIO
    TITLE "13:cjc020_4485"
    INDEX 01 00:44:73
  TRACK 39 AUDIO
    TITLE "0:"
    INDEX 01 00:46:21
  TRACK 40 AUDIO
    TITLE "14:cjc020_4486"
    INDEX 01 00:46:23
  TRACK 41 AUDIO
    TITLE "0:"
    INDEX 01 00:48:44
  TRACK 42 AUDIO
    TITLE "13:cjc020_4487"
    INDEX 01 00:49:23
  TRACK 43 AUDIO
    TITLE "0:"
    INDEX 01 00:50:56
  TRACK 44 AUDIO
    TITLE "14:cjc020_4488"
    INDEX 01 00:50:58
  TRACK 45 AUDIO
    TITLE "0:"
    INDEX 01 00:54:25
  TRACK 46 AUDIO
    TITLE "13:cjc020_4489"
    INDEX 01 00:55:12
  TRACK 47 AUDIO
    TITLE "0:"
    INDEX 01 00:56:39
  TRACK 48 AUDIO
    TITLE "14:cjc020_4490"
    INDEX 01 00:56:45
  TRACK 49 AUDIO
    TITLE "0:"
    INDEX 01 01:00:66
  TRACK 50 AUDIO
    TITLE "12:cjc020_4491"
    INDEX 01 01:02:38
  TRACK 51 AUDIO
    TITLE "0:"
    INDEX 01 01:04:07
  TRACK 52 AUDIO
    TITLE "13:cjc020_4492"
    INDEX 01 01:05:07
  TRACK 53 AUDIO
    TITLE "0:"
    INDEX 01 01:06:14
  TRACK 54 AUDIO
    TITLE "14:cjc020_4493"
    INDEX 01 01:06:16
  TRACK 55 AUDIO
    TITLE "0:"
    INDEX 01 01:09:67
  TRACK 56 AUDIO
    TITLE "13:cjc020_4494"
    INDEX 01 01:10:45
  TRACK 57 AUDIO
    TITLE "0:"
    INDEX 01 01:11:60
  TRACK 58 AUDIO
    TITLE "14:cjc020_4495"
    INDEX 01 01:11:64
  TRACK 59 AUDIO
    TITLE "0:"
    INDEX 01 01:15:60
  TRACK 60 AUDIO
    TITLE "13:cjc020_4496"
    INDEX 01 01:16:42
  TRACK 61 AUDIO
    TITLE "0:"
    INDEX 01 01:17:49
  TRACK 62 AUDIO
    TITLE "14:cjc020_4497"
    INDEX 01 01:17:53
  TRACK 63 AUDIO
    TITLE "0:"
    INDEX 01 01:19:68
  TRACK 64 AUDIO
    TITLE "13:cjc020_4498"
    INDEX 01 01:20:48
  TRACK 65 AUDIO
    TITLE "0:"
    INDEX 01 01:21:49
  TRACK 66 AUDIO
    TITLE "14:cjc020_4499"
    INDEX 01 01:21:57
  TRACK 67 AUDIO
    TITLE "0:"
    INDEX 01 01:25:37
  TRACK 68 AUDIO
    TITLE "13:cjc020_4500"
    INDEX 01 01:26:19
  TRACK 69 AUDIO
    TITLE "0:"
    INDEX 01 01:27:32
  TRACK 70 AUDIO
    TITLE "14:cjc020_4501"
    INDEX 01 01:27:34
  TRACK 71 AUDIO
    TITLE "0:"
    INDEX 01 01:29:70
